<mxfile host="app.diagrams.net" modified="2021-07-11T13:38:38.122Z" agent="5.0 (Windows NT 10.0; Win64; x64) AppleWebKit/537.36 (KHTML, like Gecko) Chrome/91.0.4472.124 Safari/537.36" etag="xfG4h5fLjtTveKCaJCsq" version="14.8.5" type="github">
  <diagram id="TWF_whsEllLNL8sGr8H2" name="Page-1">
    <mxGraphModel dx="2153" dy="685" grid="1" gridSize="10" guides="1" tooltips="1" connect="1" arrows="1" fold="1" page="1" pageScale="1" pageWidth="850" pageHeight="1100" math="0" shadow="0">
      <root>
        <mxCell id="0" />
        <mxCell id="1" parent="0" />
        <mxCell id="POWAvGwXoQjiGuhAYcVN-31" value="" style="line;strokeWidth=2;direction=west;html=1;" vertex="1" parent="1">
          <mxGeometry x="80" y="150" width="100" height="300" as="geometry" />
        </mxCell>
        <mxCell id="POWAvGwXoQjiGuhAYcVN-1" value="Android" style="verticalAlign=top;align=center;spacingTop=8;spacingLeft=2;spacingRight=12;shape=cube;size=10;direction=south;fontStyle=4;html=1;" vertex="1" parent="1">
          <mxGeometry x="180" y="450" width="240" height="130" as="geometry" />
        </mxCell>
        <mxCell id="POWAvGwXoQjiGuhAYcVN-3" value="Aplikasi Android" style="html=1;dropTarget=0;" vertex="1" parent="1">
          <mxGeometry x="187.5" y="490" width="97.5" height="70" as="geometry" />
        </mxCell>
        <mxCell id="POWAvGwXoQjiGuhAYcVN-4" value="" style="shape=module;jettyWidth=8;jettyHeight=4;" vertex="1" parent="POWAvGwXoQjiGuhAYcVN-3">
          <mxGeometry x="1" width="20" height="20" relative="1" as="geometry">
            <mxPoint x="-27" y="7" as="offset" />
          </mxGeometry>
        </mxCell>
        <mxCell id="POWAvGwXoQjiGuhAYcVN-5" value="Web Services Merchant" style="verticalAlign=top;align=center;spacingTop=8;spacingLeft=2;spacingRight=12;shape=cube;size=10;direction=south;fontStyle=4;html=1;" vertex="1" parent="1">
          <mxGeometry x="-100" y="225" width="180" height="120" as="geometry" />
        </mxCell>
        <mxCell id="POWAvGwXoQjiGuhAYcVN-6" value="Web Services Server Gateway" style="verticalAlign=top;align=center;spacingTop=8;spacingLeft=2;spacingRight=12;shape=cube;size=10;direction=south;fontStyle=4;html=1;" vertex="1" parent="1">
          <mxGeometry x="180" y="220" width="280" height="140" as="geometry" />
        </mxCell>
        <mxCell id="POWAvGwXoQjiGuhAYcVN-7" value="Virtual Account Machine" style="verticalAlign=top;align=center;spacingTop=8;spacingLeft=2;spacingRight=12;shape=cube;size=10;direction=south;fontStyle=4;html=1;" vertex="1" parent="1">
          <mxGeometry x="550" y="220" width="250" height="140" as="geometry" />
        </mxCell>
        <mxCell id="POWAvGwXoQjiGuhAYcVN-9" value="encryption service" style="html=1;dropTarget=0;align=left;" vertex="1" parent="1">
          <mxGeometry x="320" y="290" width="120" height="55" as="geometry" />
        </mxCell>
        <mxCell id="POWAvGwXoQjiGuhAYcVN-10" value="" style="shape=module;jettyWidth=8;jettyHeight=4;" vertex="1" parent="POWAvGwXoQjiGuhAYcVN-9">
          <mxGeometry x="1" width="20" height="20" relative="1" as="geometry">
            <mxPoint x="-27" y="7" as="offset" />
          </mxGeometry>
        </mxCell>
        <mxCell id="POWAvGwXoQjiGuhAYcVN-11" value="Register VA Service" style="html=1;dropTarget=0;" vertex="1" parent="1">
          <mxGeometry x="-77.5" y="255" width="135" height="70" as="geometry" />
        </mxCell>
        <mxCell id="POWAvGwXoQjiGuhAYcVN-12" value="" style="shape=module;jettyWidth=8;jettyHeight=4;" vertex="1" parent="POWAvGwXoQjiGuhAYcVN-11">
          <mxGeometry x="1" width="20" height="20" relative="1" as="geometry">
            <mxPoint x="-27" y="7" as="offset" />
          </mxGeometry>
        </mxCell>
        <mxCell id="POWAvGwXoQjiGuhAYcVN-13" value="&lt;font style=&quot;font-size: 11px&quot;&gt;Virtual Account Services&lt;/font&gt;" style="html=1;dropTarget=0;align=center;" vertex="1" parent="1">
          <mxGeometry x="560" y="265" width="120" height="50" as="geometry" />
        </mxCell>
        <mxCell id="POWAvGwXoQjiGuhAYcVN-14" value="" style="shape=module;jettyWidth=8;jettyHeight=4;" vertex="1" parent="POWAvGwXoQjiGuhAYcVN-13">
          <mxGeometry x="1" width="20" height="20" relative="1" as="geometry">
            <mxPoint x="-27" as="offset" />
          </mxGeometry>
        </mxCell>
        <mxCell id="POWAvGwXoQjiGuhAYcVN-17" value="VAM DB" style="strokeWidth=2;html=1;shape=mxgraph.flowchart.database;whiteSpace=wrap;" vertex="1" parent="1">
          <mxGeometry x="710" y="260" width="60" height="60" as="geometry" />
        </mxCell>
        <mxCell id="POWAvGwXoQjiGuhAYcVN-18" value="Reverese proxy" style="html=1;dropTarget=0;" vertex="1" parent="1">
          <mxGeometry x="187.5" y="260" width="120" height="60" as="geometry" />
        </mxCell>
        <mxCell id="POWAvGwXoQjiGuhAYcVN-19" value="" style="shape=module;jettyWidth=8;jettyHeight=4;" vertex="1" parent="POWAvGwXoQjiGuhAYcVN-18">
          <mxGeometry x="1" width="20" height="20" relative="1" as="geometry">
            <mxPoint x="-27" y="7" as="offset" />
          </mxGeometry>
        </mxCell>
        <mxCell id="POWAvGwXoQjiGuhAYcVN-21" value="Payment Service" style="html=1;dropTarget=0;" vertex="1" parent="1">
          <mxGeometry x="300" y="490" width="97.5" height="70" as="geometry" />
        </mxCell>
        <mxCell id="POWAvGwXoQjiGuhAYcVN-22" value="" style="shape=module;jettyWidth=8;jettyHeight=4;" vertex="1" parent="POWAvGwXoQjiGuhAYcVN-21">
          <mxGeometry x="1" width="20" height="20" relative="1" as="geometry">
            <mxPoint x="-27" y="7" as="offset" />
          </mxGeometry>
        </mxCell>
        <mxCell id="POWAvGwXoQjiGuhAYcVN-24" value="" style="endArrow=block;dashed=1;endFill=0;endSize=12;html=1;exitX=0.399;exitY=1.017;exitDx=0;exitDy=0;exitPerimeter=0;entryX=0;entryY=0.75;entryDx=0;entryDy=0;" edge="1" parent="1" source="POWAvGwXoQjiGuhAYcVN-18" target="POWAvGwXoQjiGuhAYcVN-9">
          <mxGeometry width="160" relative="1" as="geometry">
            <mxPoint x="200" y="340" as="sourcePoint" />
            <mxPoint x="360" y="340" as="targetPoint" />
            <Array as="points">
              <mxPoint x="230" y="331" />
            </Array>
          </mxGeometry>
        </mxCell>
        <mxCell id="POWAvGwXoQjiGuhAYcVN-29" value="" style="line;strokeWidth=2;direction=south;html=1;" vertex="1" parent="1">
          <mxGeometry x="300" y="360" width="10" height="90" as="geometry" />
        </mxCell>
        <mxCell id="POWAvGwXoQjiGuhAYcVN-32" value="" style="line;strokeWidth=2;direction=west;html=1;" vertex="1" parent="1">
          <mxGeometry x="460" y="140" width="90" height="300" as="geometry" />
        </mxCell>
        <mxCell id="POWAvGwXoQjiGuhAYcVN-33" value="" style="line;strokeWidth=2;direction=west;html=1;" vertex="1" parent="1">
          <mxGeometry x="680" y="135" width="30" height="300" as="geometry" />
        </mxCell>
        <mxCell id="POWAvGwXoQjiGuhAYcVN-34" value="" style="line;strokeWidth=2;direction=west;html=1;" vertex="1" parent="1">
          <mxGeometry x="285" y="375" width="15" height="300" as="geometry" />
        </mxCell>
        <mxCell id="POWAvGwXoQjiGuhAYcVN-35" value="Rest API" style="text;html=1;align=center;verticalAlign=middle;resizable=0;points=[];autosize=1;strokeColor=none;" vertex="1" parent="1">
          <mxGeometry x="275" y="395" width="60" height="20" as="geometry" />
        </mxCell>
        <mxCell id="POWAvGwXoQjiGuhAYcVN-36" value="Rest API" style="text;html=1;align=center;verticalAlign=middle;resizable=0;points=[];autosize=1;strokeColor=none;" vertex="1" parent="1">
          <mxGeometry x="100" y="280" width="60" height="20" as="geometry" />
        </mxCell>
        <mxCell id="POWAvGwXoQjiGuhAYcVN-37" value="Rest API" style="text;html=1;align=center;verticalAlign=middle;resizable=0;points=[];autosize=1;strokeColor=none;" vertex="1" parent="1">
          <mxGeometry x="470" y="270" width="60" height="20" as="geometry" />
        </mxCell>
      </root>
    </mxGraphModel>
  </diagram>
</mxfile>
